<?xml version="1.0" encoding="UTF-8"?>
<!DOCTYPE svg PUBLIC "-//W3C//DTD SVG 1.1//EN" "http://www.w3.org/Graphics/SVG/1.1/DTD/svg11.dtd">
<svg xmlns="http://www.w3.org/2000/svg" version="1.1" width="1080px" height="1080px" style="shape-rendering:geometricPrecision; text-rendering:geometricPrecision; image-rendering:optimizeQuality; fill-rule:evenodd; clip-rule:evenodd" xmlns:xlink="http://www.w3.org/1999/xlink">
<g><path style="opacity:0.843" fill="#fefffe" d="M 414.5,392.5 C 416.766,392.141 418.599,392.808 420,394.5C 421.254,399.31 420.087,403.31 416.5,406.5C 412.887,402.103 412.22,397.436 414.5,392.5 Z"/></g>
<g><path style="opacity:0.816" fill="#fefffe" d="M 395.5,397.5 C 397.39,397.297 398.89,397.963 400,399.5C 401.562,403.014 402.395,406.681 402.5,410.5C 397.512,409.683 394.178,406.849 392.5,402C 392.957,400.06 393.957,398.56 395.5,397.5 Z"/></g>
<g><path style="opacity:0.826" fill="#fefffe" d="M 435.5,397.5 C 438.779,397.305 440.779,398.805 441.5,402C 439.822,406.849 436.488,409.683 431.5,410.5C 430.838,405.505 432.172,401.172 435.5,397.5 Z"/></g>
<g><path style="opacity:0.967" fill="#fefffe" d="M 411.5,411.5 C 427.518,410.02 437.685,417.02 442,432.5C 443.432,448.069 436.599,457.902 421.5,462C 400.472,462.639 390.639,452.473 392,431.5C 394.691,420.977 401.191,414.31 411.5,411.5 Z"/></g>
<g><path style="opacity:0.787" fill="#fefffe" d="M 380.5,412.5 C 386.167,413.5 389.5,416.833 390.5,422.5C 386.59,422.737 382.923,421.904 379.5,420C 376.933,417.178 377.266,414.678 380.5,412.5 Z"/></g>
<g><path style="opacity:0.835" fill="#fefffe" d="M 450.5,412.5 C 454.976,412.822 456.476,415.156 455,419.5C 440.582,424.598 439.082,422.265 450.5,412.5 Z"/></g>
<g><path style="opacity:0.83" fill="#fefffe" d="M 375.5,432.5 C 379.764,432.708 383.431,434.208 386.5,437C 382.731,440.351 378.397,441.184 373.5,439.5C 371.856,436.397 372.523,434.064 375.5,432.5 Z"/></g>
<g><path style="opacity:0.848" fill="#fefffe" d="M 455.5,432.5 C 461.02,433.044 462.354,435.544 459.5,440C 455.668,440.762 452.002,440.262 448.5,438.5C 447.269,437.349 447.269,436.183 448.5,435C 451.004,434.302 453.337,433.469 455.5,432.5 Z"/></g>
<g><path style="opacity:0.85" fill="#fefffe" d="M 384.5,451.5 C 386.5,451.5 388.5,451.5 390.5,451.5C 389.662,456.676 386.662,460.01 381.5,461.5C 377.393,459.705 376.727,457.205 379.5,454C 381.315,453.243 382.981,452.41 384.5,451.5 Z"/></g>
<g><path style="opacity:0.82" fill="#fefffe" d="M 443.5,451.5 C 448.977,450.928 453.31,452.761 456.5,457C 455.481,460.048 453.481,461.381 450.5,461C 446.122,458.864 443.789,455.698 443.5,451.5 Z"/></g>
<g><path style="opacity:0.802" fill="#fefffe" d="M 432.5,462.5 C 436.687,464.52 439.687,467.687 441.5,472C 437.807,477.794 434.64,477.294 432,470.5C 431.278,467.739 431.445,465.073 432.5,462.5 Z"/></g>
<g><path style="opacity:0.836" fill="#fefffe" d="M 398.5,463.5 C 399.833,463.5 401.167,463.5 402.5,463.5C 402.395,467.319 401.562,470.986 400,474.5C 396.458,477.327 393.958,476.493 392.5,472C 393.927,468.743 395.927,465.91 398.5,463.5 Z"/></g>
<g><path style="opacity:0.837" fill="#fefffe" d="M 415.5,467.5 C 416.675,467.281 417.675,467.614 418.5,468.5C 420.262,472.002 420.762,475.668 420,479.5C 416.456,482.32 413.956,481.486 412.5,477C 413.274,473.728 414.274,470.561 415.5,467.5 Z"/></g>
<g><path style="opacity:0.959" fill="#fefffe" d="M 317.5,501.5 C 329.88,501.13 342.214,501.63 354.5,503C 370.641,506.807 380.307,516.807 383.5,533C 383.355,533.772 383.022,534.439 382.5,535C 372.833,535.667 363.167,535.667 353.5,535C 347.306,524.097 337.973,520.097 325.5,523C 317.114,525.386 312.28,530.886 311,539.5C 309.191,556.019 316.524,565.019 333,566.5C 342.791,566.362 349.624,561.862 353.5,553C 363.167,552.333 372.833,552.333 382.5,553C 383.089,565.147 378.089,574.481 367.5,581C 361.202,584.21 354.535,586.21 347.5,587C 337.833,587.667 328.167,587.667 318.5,587C 290.44,581.917 277.94,565.084 281,536.5C 284.871,516.128 297.038,504.461 317.5,501.5 Z"/></g>
<g><path style="opacity:0.975" fill="#fefffe" d="M 509.5,501.5 C 522.388,499.707 534.055,502.541 544.5,510C 548.763,514.358 551.597,519.525 553,525.5C 553.5,545.497 553.667,565.497 553.5,585.5C 543.833,585.5 534.167,585.5 524.5,585.5C 524.942,568.444 524.442,551.444 523,534.5C 515.639,524.301 506.139,521.801 494.5,527C 490.612,529.222 487.779,532.388 486,536.5C 484.56,552.776 484.06,569.11 484.5,585.5C 474.833,585.5 465.167,585.5 455.5,585.5C 455.5,558.167 455.5,530.833 455.5,503.5C 465.167,503.5 474.833,503.5 484.5,503.5C 484.177,507.226 484.511,510.893 485.5,514.5C 492.438,508.034 500.438,503.7 509.5,501.5 Z"/></g>
<g><path style="opacity:0.965" fill="#fefffe" d="M 610.5,501.5 C 623.283,500.908 635.95,501.742 648.5,504C 660.995,506.994 669.495,514.494 674,526.5C 676.45,534.256 677.284,542.089 676.5,550C 652.169,550.5 627.836,550.667 603.5,550.5C 604.084,559.255 608.751,564.422 617.5,566C 625.237,567.789 632.903,567.456 640.5,565C 642.792,563.71 644.792,562.043 646.5,560C 656.494,559.5 666.494,559.334 676.5,559.5C 676.101,567.794 672.434,574.294 665.5,579C 657.112,583.681 648.112,586.348 638.5,587C 626.401,587.996 614.401,587.329 602.5,585C 582.418,579.015 572.418,565.515 572.5,544.5C 573.227,519.448 585.894,505.114 610.5,501.5 Z M 619.5,520.5 C 627.32,519.764 634.653,521.264 641.5,525C 644.076,527.651 645.409,530.818 645.5,534.5C 631.5,534.5 617.5,534.5 603.5,534.5C 603.974,530.719 605.641,527.552 608.5,525C 612.053,522.879 615.72,521.379 619.5,520.5 Z"/></g>
<g><path style="opacity:0.975" fill="#fefffe" d="M 402.5,503.5 C 412.167,503.5 421.833,503.5 431.5,503.5C 431.167,539.839 431.5,576.173 432.5,612.5C 444.456,600.755 458.789,596.588 475.5,600C 488.122,602.621 496.289,610.121 500,622.5C 500.667,642.5 500.667,662.5 500,682.5C 490.583,683.485 481.083,683.818 471.5,683.5C 471.942,666.444 471.442,649.444 470,632.5C 466.264,625.295 460.264,621.961 452,622.5C 442.835,621.995 436.502,625.995 433,634.5C 431.728,650.447 431.061,666.447 431,682.5C 421.667,683.833 412.333,683.833 403,682.5C 402.5,622.834 402.333,563.168 402.5,503.5 Z"/></g>
<g><path style="opacity:0.955" fill="#fefffe" d="M 313.5,599.5 C 325.171,599.333 336.838,599.5 348.5,600C 357.944,600.641 366.11,604.141 373,610.5C 376.167,614.994 377.333,619.827 376.5,625C 366.833,625.667 357.167,625.667 347.5,625C 343.703,618.558 338.037,616.058 330.5,617.5C 326.413,617.448 322.413,617.948 318.5,619C 313.923,624.104 314.923,627.77 321.5,630C 333.171,630.967 344.838,631.967 356.5,633C 376.302,637.17 383.136,649.003 377,668.5C 372.205,676.661 365.039,681.495 355.5,683C 336.883,686.822 318.55,685.822 300.5,680C 292.302,675.968 287.302,669.468 285.5,660.5C 285.608,659.558 285.941,658.725 286.5,658C 296.5,657.333 306.5,657.333 316.5,658C 317.104,660.468 318.438,662.468 320.5,664C 328.061,666.85 335.727,667.183 343.5,665C 348.038,663.336 349.538,660.169 348,655.5C 347.097,654.299 345.931,653.465 344.5,653C 331.464,651.608 318.464,649.941 305.5,648C 287.748,641.991 282.248,630.157 289,612.5C 290.5,609.667 292.667,607.5 295.5,606C 301.294,602.905 307.294,600.739 313.5,599.5 Z"/></g>
<g><path style="opacity:0.967" fill="#fefffe" d="M 629.5,599.5 C 644.032,596.78 656.865,600.114 668,609.5C 671.673,613.847 674.006,618.847 675,624.5C 675.667,643.833 675.667,663.167 675,682.5C 665.583,683.485 656.083,683.818 646.5,683.5C 646.925,666.785 646.425,650.118 645,633.5C 641.673,625.502 635.673,621.835 627,622.5C 618.206,622.06 611.873,625.726 608,633.5C 606.559,650.11 606.059,666.777 606.5,683.5C 596.833,683.5 587.167,683.5 577.5,683.5C 577.5,655.833 577.5,628.167 577.5,600.5C 586.839,600.334 596.173,600.5 605.5,601C 606.297,604.745 606.797,608.579 607,612.5C 613.445,606.199 620.945,601.865 629.5,599.5 Z"/></g>
<g><path style="opacity:0.963" fill="#fefffe" d="M 731.5,599.5 C 741.506,599.334 751.506,599.5 761.5,600C 783.015,602.849 795.182,615.015 798,636.5C 798.499,640.486 798.666,644.486 798.5,648.5C 773.833,648.5 749.167,648.5 724.5,648.5C 725.799,656.635 730.465,661.802 738.5,664C 746.181,665.596 753.848,665.262 761.5,663C 763.909,661.799 765.909,660.133 767.5,658C 777.849,657.168 788.183,657.334 798.5,658.5C 795.961,668.541 789.961,675.708 780.5,680C 759.161,687.223 737.828,687.223 716.5,680C 704.454,674.274 697.287,664.774 695,651.5C 690.813,622.247 702.98,604.913 731.5,599.5 Z M 739.5,618.5 C 745.577,618.196 751.577,618.696 757.5,620C 763.177,621.841 766.51,625.674 767.5,631.5C 753.167,632.833 738.833,632.833 724.5,631.5C 726.95,624.124 731.95,619.79 739.5,618.5 Z"/></g>
<g><path style="opacity:0.974" fill="#fefffe" d="M 524.5,600.5 C 534.167,600.5 543.833,600.5 553.5,600.5C 553.5,628.167 553.5,655.833 553.5,683.5C 543.828,683.666 534.161,683.5 524.5,683C 524.043,682.586 523.709,682.086 523.5,681.5C 524.477,654.366 524.811,627.366 524.5,600.5 Z"/></g>
</svg>
